<svg xmlns="http://www.w3.org/2000/svg" viewBox="0 0 800 800">
    <defs>
        <linearGradient id="ssscribble-grad" x1="50%" x2="50%" y1="0%" y2="100%">
            <stop offset="0%" stopColor="hsl(206, 75%, 49%)"></stop>
            <stop offset="100%" stopColor="hsl(331, 90%, 56%)"></stop>
        </linearGradient>
    </defs>
    <g fill="none" stroke="url(#ssscribble-grad)" strokeLinecap="round" strokeWidth="1.5">
        <path
            d="M903.77 572.78c-163.62 32.87-254.31 82.34-232.44 137.62 118.82 42.59 264.01 65.17 363.55 43.54 16.57-57.18-59.36-156.53-191.39-258.41-148.47-30.64-266.1 43.98-331.4 228.41-10.16 192.61 21.98 279.3 72.33 177.13 63.11-195.35 111.9-301.32 138.66-175.19 16.02 248.31 11.02 358.39-8.59 190.99-24.35-231.1-54.9-224.27-87.76 31.24-32.86 154.84-66.48-3.97-104.1-255.5-42.36-32.67-97.14 174.16-170.11 354.65-83.7-45.75-186.61-271.75-300.37-458.3-100.99-6.35-180.3 140.64-213.21 294.26 22.23 58.63 100.9-19.49 215.14-171.17C151.9 541.19 198.35 420.19 157.7 359.12c-123.63-13.42-287.51-.41-419.02 10.39-34.55 18.29 49.48 14.12 213.1-18.73 148.16-32.86 202.11-92.85 142.82-173.1C-114.31 68.5-184.85 26.1 11.77 179.74c142.05 101.05 238.76 132.02 277.59 30.35-16.66-196.67-67.85-382.63-127.64-410.55C76.2 50.12 41.54-147.21 77.15-240.07 109.65-1.24 144.5 150.96 177.36-3.78c32.86-255.55 62.18-255.81 91.65-12.05 34.39 180.13 78.1 88.8 138.79-135.41 74.52-102.09 171.41 33.31 286.19 262.87 110.43 136.41 208.8 88.72 268.53-60.81 4.24-141.36-53.51-168.84-161.34-87.58-110.02 152.5-185.35 305.98-180.7 420.12 96.84 78.59 254.79 115.8 406.78 135.19 71.96 6.69 24.68 21.38-123.49 54.23q0 0 0 0"
            opacity="0.17"></path>
        <path
            d="M869.77 587.07c-153.49 30.51-248.32 43.72-247.72 34.5 91.59-16 224-61.73 337.74-131.06 57.86-54.47 34.63-87.02-54.33-55.53-129.49 108.25-260.8 280.2-365.33 450.91-1.48 1.43 50.66-234.13 11.52 28.22-30.52 154.26-72.84 33.38-127.4-210.74-56.68-100.91-128.35 35.18-213.57 242.57-84.07 75.92-172.48-54.52-251.69-268.54-53.06-145.98-71.84-134.83-43.93-14.93C-20.4 810.55 74.72 885.5 172.44 865.1c57.19-99.28 53.05-232.51-27.18-355.64-136.1-111.73-285.87-187.78-389.24-237.2-12.38-38.34 76.27-68.54 229.76-99.05 140.07-30.51 202.07-59.9 165.5-79.11-116.06-8.13-251.21 12.39-347.32 71.23C-223 235.58-168.4 318.57-57.73 370.84 79.53 344.24 203.5 225.5 290.54 37.44c43.91-159.91 45.84-207.26 21.77-93.08-45.59 182.24-90.15 285.34-122.54 187.1-29.82-229.74-41.55-383.24-36.54-294.16 7.96 232.32 28.13 347.08 58.64 192.91 30.52-242.73 69.92-275.93 119.51-72.13 52.54 213.63 119.78 215.29 202.48 32.33 85.26-180.76 180.08-179.82 272.69-11.68 71.11 209.96 112.98 315.21 109.07 282.11C868.57 130.14 780.78 2 675.28-59.24c-78.9 15.51-106.13 98.28-56.81 205.63 118.48 122.21 271.01 223.45 398.84 297 48.35 66.78-7.46 113.16-147.54 143.68q0 0 0 0"
            opacity="0.86"></path>
        <path
            d="M835.77 324.5c-191.4 30.41-137.23 5.83 34.61 7.3 85.84 42.19 109.46 130.71 70.32 268.55-89.63 146.44-205.27 270.28-320.05 309.53-102.46-67.73-175.26-217.82-218.2-359.39-16.95-18.09-15.55 118.36-7.23 333.95 23.72 93.07 25.79-266.13-8.63-4.33-28.17 151.83-70.67 67.26-125.39-157.05-53.82-151.05-117.08-98.11-183.6 86.42-57.14 157.08-104.91 151.83-131.37 1.89-.48-197.98 31.89-322.2 97.43-329.79 77.85 92.38 160.1 214.49 220.4 304.42 9.82 41.02-39.07 17.25-145.55-45.83-136.1-91.3-264.88-181.8-339.8-255.41 6.97-73.72 98.08-125.35 241.06-153.52 131.5-28.17 199.41-31.56 183.5-10.96-90.91 20.49-213.72 59.75-320.94 102.24-62.77 14.29-57.3-8.31 7.98-92.73C-1.66 196.47 120.07 33.92 229.88-95.39c88.33-29.36 142.55 61.45 166.88 230.08-1.57 120.64-17.21 100.67-35.09-77.02-32.57-239.7-38.15 118.83-3.67 6.54 28.16-228.53 70.55-289.49 125.74-131.58C538.9 155.21 605.7 238.71 679.3 132.6 745.99-62.33 808.02-173.55 853-126.15c19.08 170.88 5.29 354.38-46.12 459.03-72.89-2.33-161.24-85.72-239.94-188.76C530.99 49.69 550.78 7.55 634.2 14.18c127.87 41.94 266.71 103.98 368.49 164.79 26.78 66.86-35.42 117.36-166.92 145.53q0 0 0 0"
            opacity="0.26"></path>
        <path
            d="M801.77 173.64c-132.15 25.82-228.86 53.9-261.97 89.93 37.61 43.78 126.08 108.51 232.27 201.08 98.92 103.17 157.37 222.22 164.96 330.64-40.13 59.74-118.44 51.8-215.18-37.61-105.51-127.52-200.45-244.37-276.6-272.51-60.27 97.3-100.54 283.21-126.52 451.35-15.04 34.59-25.5-92.94-37.56-291.86-9.45-99.76-25.87-11.58-51.68 201.45-25.82 147.57-59.83 96.64-99.07-98.05C93.79 568.31 57.28 540.8 27.57 664.5 8.81 843.94 6.56 943.32 27.04 908c36.35-145.66 94.22-319.06 165.89-442.69 62.9-42.23 110.6-4.14 123.85 73.45-34.47 95.98-116.08 166.06-233.93 199.18-125.1 7.92-228.27-12.09-275.85-44.33C-169.85 653.38-78.37 616.82 53.77 591c122.44-25.83 194.12-39.68 196.36-48.15-65.35-16.44-169.46-43.39-276.1-96.04-85.12-77.86-120.54-190.45-102.74-326.22C-64.94 3.19 29.41-71.98 133.18-63.62c104.13 89.76 190.72 232.55 254.8 351.34 44.98 8.47 70.61-114.04 84.41-312.38 3.28-142.66 5.27-129.89 12.05 39.86 4.64 184.73 18.73 230.5 44.55 83 25.82-213.05 62.14-296.06 106.2-186.38 41.91 208.87 86.9 351.13 128.36 335.5 30.94-149.2 47.83-311.96 42.65-382.39-24.29 55.01-73.81 202.46-144.1 363.83-101.8 145.76-132.19 41.43 1.14-55.26 125.58-47.83 244.39-65.59 319.7-60.68 7.72 12.67-58.73 35-181.17 60.82q0 0 0 0"
            opacity="0.15"></path>
        <path
            d="M767.72 357.75c-120.99 23.47-215.58 66.94-260.5 128.56 13.6 61.09 75.6 136.43 164 215.13 97.63 60.36 175.33 97.56 218.53 90.48 6.95-50.86-24.74-146.45-84.21-260.63-80.37-77.08-167.2-85.3-249.58 3.57-79.64 157.22-146 321.91-198.57 405.08-45.6-48.6-81.09-206.46-109.89-374.3-26.35-53.65-50.49 50.07-73.96 246.48-23.47 141.53-45.17 120.57-63.08-37.78C94.99 587.86 87.78 495.62 92.7 539.82c11.9 145.04 39.6 292.78 83.07 363.68 46.2-32.09 99.33-149.75 148.94-295.98 28.7-135.05 32.57-216.3 1.17-241.1-67.63 23.69-166.39 72.56-281.23 122.21-143.27 71.78-122.83 107.08 43.07 79.47 112.94-23.47 186.33-61.03 203.79-114.47-40.74-57.14-122.01-134.61-218.1-229.68C-19.75 133.62-82.81 46.1-105.69-13.77-89.56-25.14-37.4 22.4 37.15 126.69c90.06 115.47 179.96 205.3 260.28 212.94 73.3-95.34 131.15-264.13 175.02-426.36 35.71-61.4 62.96 17.47 86 194.89 20.52 149.29 41.59 165.49 65.06 23.96 23.47-196.4 48.23-295.37 71.98-232.65 28.96 262.49 28.87 276.12-17.84 71.53-44.15-64.43-100.34-28.38-159.64 79.46-43.81 144.94-68.15 274.23-59.85 361.26 47.31 43.26 131.41 44.72 241.78 25.03 113.3-38.03 207.93-70.67 257.75-87.49-8.38-17.36-76.99-14.99-189.92 8.48l-.05.01"
            opacity="0.47"></path>
        <path
            d="M734.3 604.26c-109.6 21.12-200.37 49.18-253.8 79.25-7.2 24.63 28.27 40.64 93.29 37.39 84.33-21.02 165.27-70.75 228.28-147.43 42.01-77.12 53.3-147.98 37.01-181.84-39.17 28.33-94.84 122.87-157.73 267.99-70.06 142.84-136.86 234.46-195.91 226.15-57.97-105.29-106.4-263.09-145.03-387.69-37.54-11.96-66.93 101.15-88.05 279.93-21.13 133.74-32.99 138.32-35.29 19.64-1.21-173.43 8.8-305.97 30.15-338.64 22.44 73.29 54.46 204.33 91.96 326.6 30.33 72.19 55.67 63.92 67.16-9.82-11.4-117.9-47.74-241.35-111.74-343.6-85.01-77.79-184.9-120.1-284.71-136.84-80.5 2.94-127.99 12.67-128.94 17.74 45.27 8.71 131.75 4.35 241.35-16.78 102.9-21.11 175.72-57.99 204.89-106.54-18.67-44.91-75.52-93.07-153.74-132.63C85.34 37.26 10.16 44.77-39.98 89.98c-23.78 69.68-15.53 162.8 18.67 253.03 55.26 46.07 122.52 29.32 192.46-64.85 73.7-144.25 140.7-294.23 197.89-383.03 54.34 17.15 98.82 137.63 134.24 302.9 33.94 110.55 61.29 101.75 82.41-31.93 21.13-178.79 35.03-287.67 40.93-267.61 4.42 132.73-1.63 302.56-19.36 423.35-20.58 23.83-52.8-48.84-93.94-169.68-55.84-157.87-100.01-81.14-45.83 79.13 72.15 109.24 166.28 193.76 269.87 251.39 93.7 39.86 162.58 62.28 189.4 77.49-21.02 9.77-89.56 22.96-192.46 44.09q0 0 0 0"
            opacity="0.64"></path>
        <path
            d="M699.71 548.48c-97.89 18.78-182.79 24.16-240.67 15.26-23.2-11.01-11.45-38.96 28.44-82.58 62.97-41.89 133.34-89.37 199.18-128.6 58.98-11.35 98.93 11.07 117.95 78.42 1.75 102.82-14.87 230.12-44.4 350.56-40.24 73.34-85.48 76.35-130.49-1.45-48.17-126.88-91.68-259.24-127.91-335.45-36.57 22.77-64.89 139.27-83.67 299.57-18.78 124.23-27.12 149.2-25.97 70.14.82-145.04 10.17-290.29 25.8-379.45 12.46-7.4 26.79 60.01 38.09 165.65.58 113.18-9.75 190.64-36.12 216.78-43.63-23.34-105.84-87.6-184.38-171.42-85.39-96.92-172.6-185.12-249.32-256.43-53.66-63.2-76.09-109.02-60.13-141.67 50.63-28.64 131.71-51.04 229.6-69.81 92.69-18.78 163.4-33.06 201.39-39.83.62-2.76-31.94 8.89-87.77 39.56-72.79 38.76-145.56 96.04-207.22 164.03-49.06 54.87-75.55 92.18-79.9 90.9 14-50.75 44.71-150.47 85.73-283.21C118.22 24.26 170.56-59.97 220.08-66.34c51.41 75.38 96.51 209.95 133.34 347.74 36.76 71.82 65.04 43.04 83.82-81.19 22.98-216.64 18.95-133.54-5.39 78.62-16.98 91.57-38.39 105.4-59.74 51.61-12.08-100.89-15.85-205.93-5.24-284.14 28.95-42.74 77.71-38.2 146.31 2.1C594.39 116.56 684 194.97 770.56 269.41c69.59 76.16 112.85 138.26 119.5 184.69-30.73 44.31-97.62 75.59-190.3 94.37l-.05.01"
            opacity="0.51"></path>
        <path
            d="M665.76 272.81c-163.62 32.87-256.86 20.68-249.78.26 93.01 25.85 207.47 128.45 289.59 325.55 48.4 177.45 42.51 219.61 6.14 42.84-53.44-200.82-105.22-186.82-138.08 68.74-32.86 154.75-43.69-1.04-47.2-244.85-20.58-76.92-65.97 54.13-157.44 214.39C243.8 767.8 94.49 726.38-22.6 632.98-53.77 510 26.14 420.87 189.76 388c148.17-32.86 205.66-6.34 163.63 59.7-115.04 36.45-230.37 26.59-298.78-104.55C29.7 139.83 57.86-26.06 109.26 26.76c66.83 219.72 124.93 362.19 157.79 207.44 32.87-255.55 37.38-256.23 27.49-31.33 5.55 200.86 28.68 193.55 96.66 59.17C502.67 108.01 652.86 56.69 791.98 87.79c66.12 77.37 21.95 152.16-126.22 185.02q0 0 0 0"
            opacity="0.47"></path>
        <path
            d="M631.72 185.33c-142.98 28.17-241.23 76.23-268.09 161.62 43.49 106 123.64 256.37 201.14 395.16 92.95-3.5 100.52-329.89 61.29-65.99-28.16 151.83-59.71 68.89-102.42-141.21-54.36-166.69-136.68-176.69-247.37-81.51C161.86 592.48 51.83 677.7-12.3 696.19c6.21-15.24 93.04-52.24 236.02-80.4 131.52-28.17 201.74-44.84 197.53-78.41C351.43 470.08 258.53 340.9 181 164.91c-63.97-132.1-88.36-151.99-82.02-5.97 19.06 189.45 48.54 261.02 76.7 109.27 28.17-228.54 52.36-287.98 82.11-146.91 42.46 215.33 110.8 338.56 211.68 332.31C583.92 351.74 706.7 245.32 797.18 188.13c24.87-36.58-33.91-30.97-165.41-2.81l-.05.01"
            opacity="0.48"></path>
        <path
            d="M597.72 415.44c-120.98 23.47-216.25 86.78-265.38 175.49.11 75.18 36.3 137.25 85.34 137.23 62.03-70.71 109.16-211.31 132.41-352.13 19.91-35.83 17.77 69.69-5.7 266.09-23.47 141.53-66.05 120.63-126.64-24.25-63.93-180.48-147.69-294.96-240.48-318.46C97.46 350.95 36.38 426.82 19.06 480.86c31.93 52.46 117.68 66.75 238.66 43.28 112.94-23.48 187.63-82.49 211.7-175.61-25.56-94.73-80.37-207.23-139.3-289.54-65.31-7.26-109.95 82.31-128.87 245.57-13.64 127.68-7.29 139.11 16.18-2.35 23.46-196.44 61.83-292.5 116.14-239.49 59.59 158.03 140.86 323.53 236.94 425.02 129.55 18.07 172.76-86.49 27.26-72.31l-.05.01"
            opacity="0.38"></path>
        <path
            d="M563.98 622.64c-97.9 18.78-183.02 40.7-241.74 51.97-30-4.19-33.38-43.35-20.54-125.92 42.57-143.89 92.87-159.2 75.09 59.38-18.78 124.29-56.54 148.06-107.78 77.16-49.24-131.54-106.38-266.74-159.65-364.16-37.45-58.94-53.98-75.79-37.75-74.46 44.96 15.71 122.47 20.89 220.37 2.11 92.65-18.77 163.88-59.73 204.42-107.98 9.18-33.88-6-46.34-32.68-12.01-39.68 72.81-73.75 188.1-93.16 305.88-20.01 57.13-22.1 25.75-3.32-98.54 18.77-160.29 56.65-269.26 109.2-286.16 51.95 68.28 115.32 187.71 179.62 306.45 51.28 107.18 86.38 175.65 90.97 212.37-26.78 21.28-90.4 35.13-183.05 53.91q0 0 0 0"
            opacity="0.2"></path>
        <path
            d="M529.72 500.39c-142.98 28.17-244.01-42.42-284.57-172.93.63-60.61 6.34 18.16-21.83 246.66-28.17 151.83-84.88 71.85-122.42-91.99 3.64-168.68 81.84-256.77 224.82-284.93 131.53-28.17 206.16 8.91 223.22 140.68-23.05 126.93-40.27 184.07-12.1 32.24C565 141.62 633.23 85.68 693.19 183.21c19.85 167.43-31.94 289.01-163.47 317.18q0 0 0 0"
            opacity="0.23"></path>
        <path
            d="M495.77 229.51c-182.64 37.56-283.8 34.06-321.35 310.6-37.56 150.48 2.71-56.83 185.35-94.39 162.74-37.55 227.65 108.87 265.21-41.61 37.55-276.54 33.53-212.15-129.21-174.6q0 0 0 0"
            opacity="0.74"></path>
    </g>
</svg>