<svg xmlns="http://www.w3.org/2000/svg" viewBox="0 0 1422 800">
    <defs>
        <linearGradient id="oooscillate-grad" x1="50%" x2="50%" y1="0%" y2="100%">
            <stop offset="0%" stopColor="hsl(206, 75%, 49%)"></stop>
            <stop offset="100%" stopColor="hsl(331, 90%, 56%)"></stop>
        </linearGradient>
    </defs>
    <g fill="none" stroke="url(#oooscillate-grad)" strokeLinecap="round" strokeWidth="2">
        <path d="M0 572q355.5-672 711-172t711 172" opacity="0.99"></path>
        <path d="M0 550q355.5-650 711-150t711 150" opacity="0.18"></path>
        <path d="M0 528q355.5-628 711-128t711 128" opacity="0.59"></path>
        <path d="M0 506q355.5-606 711-106t711 106" opacity="0.34"></path>
        <path d="M0 484q355.5-584 711-84t711 84" opacity="0.35"></path>
        <path d="M0 462q355.5-562 711-62t711 62" opacity="0.67"></path>
        <path d="M0 440q355.5-540 711-40t711 40" opacity="0.61"></path>
        <path d="M0 418q355.5-518 711-18t711 18" opacity="0.64"></path>
        <path d="M0 396q355.5-496 711 4t711-4" opacity="0.18"></path>
        <path d="M0 374q355.5-474 711 26t711-26" opacity="0.74"></path>
        <path d="M0 352q355.5-452 711 48t711-48" opacity="0.26"></path>
        <path d="M0 330q355.5-430 711 70t711-70" opacity="0.78"></path>
        <path d="M0 308q355.5-408 711 92t711-92" opacity="0.49"></path>
        <path d="M0 286q355.5-386 711 114t711-114" opacity="0.35"></path>
        <path d="M0 264q355.5-364 711 136t711-136" opacity="0.94"></path>
        <path d="M0 242q355.5-342 711 158t711-158" opacity="0.8"></path>
        <path d="M0 220q355.5-320 711 180t711-180" opacity="0.45"></path>
        <path d="M0 198q355.5-298 711 202t711-202" opacity="0.98"></path>
        <path d="M0 176q355.5-276 711 224t711-224" opacity="0.76"></path>
        <path d="M0 154q355.5-254 711 246t711-246" opacity="0.27"></path>
        <path d="M0 132q355.5-232 711 268t711-268" opacity="0.35"></path>
        <path d="M0 110q355.5-210 711 290t711-290" opacity="0.44"></path>
        <path d="M0 88q355.5-188 711 312t711-312" opacity="0.43"></path>
        <path d="M0 66q355.5-166 711 334t711-334" opacity="0.66"></path>
        <path d="M0 44q355.5-144 711 356t711-356" opacity="0.82"></path>
    </g>
</svg>