<svg xmlns="http://www.w3.org/2000/svg" x="0" y="0" enableBackground="new 0 0 504.123 504.123" version="1.1"
    viewBox="0 0 504.123 504.123" xmlSpace="preserve">
    <path fill="#0CC18E"
        d="M429.064 177.018C429.064 79.258 349.822 0 252.054 0 154.301 0 75.059 79.258 75.059 177.018c0 49.451 21.638 105.614 53.035 149.323l123.975 177.782 124.006-177.814c37.377-53.445 52.989-99.871 52.989-149.291z">
    </path>
    <path fill="#17DD9F" d="M252.054 0C154.301 0 75.059 79.258 75.059 177.018"></path>
    <path fill="#039176"
        d="M252.069 504.123l124.006-177.814c37.368-53.445 52.988-99.872 52.988-149.291C429.064 79.258 349.822 0 252.054 0">
    </path>
    <path fill="#047F73" d="M429.064 177.018C429.064 79.258 349.822 0 252.054 0"></path>
    <circle cx="252.062" cy="166.936" r="79.557" fill="#F44D71"></circle>
    <path fill="#FF6679" d="M172.528 166.936c0-43.93 35.604-79.557 79.525-79.557"></path>
    <path fill="#D60949" d="M252.054 87.387c43.922 0 79.557 35.619 79.557 79.557 0 43.922-35.627 79.525-79.557 79.525">
    </path>
    <path fill="#B50444" d="M331.603 166.936c0 43.922-35.627 79.525-79.557 79.525"></path>
</svg>