<svg xmlns="http://www.w3.org/2000/svg" x="0" y="0" enableBackground="new 0 0 512 512" version="1.1"
  viewBox="0 0 512 512" xmlSpace="preserve">
  <path fill="#FFDC64"
    d="M435.574 230.347H332.96v239.432h102.614a8.552 8.552 0 008.551-8.551v-222.33a8.55 8.55 0 00-8.551-8.551z"></path>
  <path fill="#5B5D6E" d="M375.716 230.347H409.921V469.779H375.716z"></path>
  <path fill="#FFC850" d="M341.512 230.347H375.717V469.779H341.512z"></path>
  <path fill="#5B5D6E"
    d="M307.307 503.984H102.079c-18.891 0-34.205-15.314-34.205-34.205V110.631c0-18.891 15.314-34.205 34.205-34.205h205.228c18.891 0 34.205 15.314 34.205 34.205v359.148c0 18.891-15.314 34.205-34.205 34.205z">
  </path>
  <path fill="#464655"
    d="M110.631 469.779V110.631c0-18.891 15.314-34.205 34.205-34.205H102.08c-18.891 0-34.205 15.314-34.205 34.205v359.148c0 18.891 15.314 34.205 34.205 34.205h42.756c-18.891 0-34.205-15.314-34.205-34.205z">
  </path>
  <g fill="#C7CFE2">
    <path
      d="M208.969 332.961h-8.551c-9.446 0-17.102-7.656-17.102-17.102 0-9.446 7.656-17.102 17.102-17.102h8.551c9.446 0 17.102 7.656 17.102 17.102 0 9.445-7.656 17.102-17.102 17.102zM208.969 401.37h-8.551c-9.446 0-17.102-7.656-17.102-17.102 0-9.446 7.656-17.102 17.102-17.102h8.551c9.446 0 17.102 7.656 17.102 17.102 0 9.445-7.656 17.102-17.102 17.102z">
    </path>
  </g>
  <path fill="#FFDC64"
    d="M208.969 469.779h-8.551c-9.446 0-17.102-7.656-17.102-17.102 0-9.446 7.656-17.102 17.102-17.102h8.551c9.446 0 17.102 7.656 17.102 17.102 0 9.445-7.656 17.102-17.102 17.102z">
  </path>
  <g fill="#C7CFE2">
    <path
      d="M285.929 332.961h-8.551c-9.446 0-17.102-7.656-17.102-17.102 0-9.446 7.656-17.102 17.102-17.102h8.551c9.446 0 17.102 7.656 17.102 17.102 0 9.445-7.656 17.102-17.102 17.102zM285.929 401.37h-8.551c-9.446 0-17.102-7.656-17.102-17.102 0-9.446 7.656-17.102 17.102-17.102h8.551c9.446 0 17.102 7.656 17.102 17.102 0 9.445-7.656 17.102-17.102 17.102z">
    </path>
  </g>
  <path fill="#C8FF82"
    d="M285.929 469.779h-8.551c-9.446 0-17.102-7.656-17.102-17.102 0-9.446 7.656-17.102 17.102-17.102h8.551c9.446 0 17.102 7.656 17.102 17.102 0 9.445-7.656 17.102-17.102 17.102z">
  </path>
  <g fill="#C7CFE2">
    <path
      d="M132.008 332.961h-8.551c-9.446 0-17.102-7.656-17.102-17.102 0-9.446 7.656-17.102 17.102-17.102h8.551c9.446 0 17.102 7.656 17.102 17.102.001 9.445-7.656 17.102-17.102 17.102zM132.008 401.37h-8.551c-9.446 0-17.102-7.656-17.102-17.102 0-9.446 7.656-17.102 17.102-17.102h8.551c9.446 0 17.102 7.656 17.102 17.102.001 9.445-7.656 17.102-17.102 17.102z">
    </path>
  </g>
  <path fill="#FF507D"
    d="M132.008 469.779h-8.551c-9.446 0-17.102-7.656-17.102-17.102 0-9.446 7.656-17.102 17.102-17.102h8.551c9.446 0 17.102 7.656 17.102 17.102.001 9.445-7.656 17.102-17.102 17.102z">
  </path>
  <path fill="#B4E66E"
    d="M298.756 170.489H110.631a8.552 8.552 0 00-8.551 8.551V256a8.552 8.552 0 008.551 8.551h188.125a8.552 8.552 0 008.551-8.551v-76.96a8.552 8.552 0 00-8.551-8.551z">
  </path>
  <path fill="#E4EAF8"
    d="M275.24 16.568L251.725 8.017 228.209 16.568 204.693 8.017 181.178 16.568 157.662 8.017 134.146 16.568 110.631 8.017 110.631 136.284 298.756 136.284 298.756 8.017z">
  </path>
  <g fill="#C8FF82">
    <path
      d="M151.226 238.898h48.89a8.553 8.553 0 007.115-3.807l22.42-33.631c1.516-2.274-.114-5.318-2.846-5.318h-48.89a8.553 8.553 0 00-7.115 3.807l-22.42 33.631c-1.515 2.274.114 5.318 2.846 5.318zM228.186 238.898h14.686a8.553 8.553 0 007.115-3.807l22.42-33.631c1.516-2.274-.114-5.318-2.846-5.318h-14.686a8.553 8.553 0 00-7.115 3.807l-22.42 33.631c-1.515 2.274.114 5.318 2.846 5.318z">
    </path>
  </g>
  <path
    d="M230.346 110.096h34.206a8.017 8.017 0 000-16.034h-34.206a8.017 8.017 0 000 16.034zM144.835 110.096h51.307a8.017 8.017 0 000-16.034h-51.307a8.017 8.017 0 000 16.034zM247.447 75.892h17.104a8.017 8.017 0 000-16.034h-17.104a8.017 8.017 0 000 16.034zM196.146 75.892h17.097a8.017 8.017 0 000-16.034h-17.097a8.017 8.017 0 000 16.034zM144.835 75.892h17.103a8.017 8.017 0 000-16.034h-17.103a8.017 8.017 0 000 16.034z">
  </path>
  <path
    d="M435.574 222.33h-86.046V110.631c0-23.281-18.941-42.221-42.221-42.221h-.534V8.017A8.017 8.017 0 00296.017.484L275.24 8.038 254.464.483a8.022 8.022 0 00-5.479 0l-20.776 7.555L207.433.483a8.022 8.022 0 00-5.479 0l-20.776 7.555L160.402.483a8.022 8.022 0 00-5.479 0l-20.776 7.555L113.37.483a8.018 8.018 0 00-10.756 7.533v60.392h-.534c-23.281 0-42.221 18.941-42.221 42.221v359.148c0 23.28 18.941 42.221 42.221 42.221h205.228c20.54 0 37.691-14.745 41.449-34.205h86.819c9.136 0 16.568-7.432 16.568-16.568v-222.33c-.002-9.133-7.434-16.565-16.57-16.565zm-67.875 16.033v223.399h-18.171V238.363h18.171zm-249.052-218.9l12.759 4.639a8.022 8.022 0 005.479 0l20.776-7.555 20.776 7.555a8.022 8.022 0 005.479 0l20.776-7.555 20.776 7.555a8.022 8.022 0 005.479 0l20.776-7.555 20.776 7.555a8.022 8.022 0 005.479 0l12.759-4.639v108.805h-172.09V19.463zm188.66 476.504H102.079c-14.44 0-26.188-11.748-26.188-26.188V110.631c0-14.44 11.748-26.188 26.188-26.188h.534v43.825h-.534a8.017 8.017 0 000 16.034h205.228a8.017 8.017 0 000-16.034h-.534V84.443h.534c14.44 0 26.188 11.748 26.188 26.188v359.148c0 14.44-11.748 26.188-26.188 26.188zm128.802-34.739a.535.535 0 01-.534.534h-17.637V298.755a8.017 8.017 0 00-8.017-8.017 8.017 8.017 0 00-8.017 8.017v163.007h-18.171V238.363h18.171v26.185a8.017 8.017 0 0016.034 0v-26.185h17.637c.295 0 .534.241.534.534v222.331z">
  </path>
  <path
    d="M208.969 290.739h-8.551c-13.851 0-25.119 11.268-25.119 25.119s11.268 25.119 25.119 25.119h8.551c13.851 0 25.119-11.268 25.119-25.119s-11.268-25.119-25.119-25.119zm0 34.205h-8.551c-5.01 0-9.086-4.076-9.086-9.086s4.076-9.086 9.086-9.086h8.551c5.01 0 9.086 4.076 9.086 9.086s-4.076 9.086-9.086 9.086zM208.969 359.148h-8.551c-13.851 0-25.119 11.268-25.119 25.119 0 13.851 11.268 25.119 25.119 25.119h8.551c13.851 0 25.119-11.268 25.119-25.119 0-13.85-11.268-25.119-25.119-25.119zm0 34.205h-8.551c-5.01 0-9.086-4.076-9.086-9.086 0-5.01 4.076-9.086 9.086-9.086h8.551c5.01 0 9.086 4.076 9.086 9.086-.001 5.01-4.076 9.086-9.086 9.086zM208.969 427.558h-8.551c-13.851 0-25.119 11.268-25.119 25.119 0 13.851 11.268 25.119 25.119 25.119h8.551c13.851 0 25.119-11.268 25.119-25.119 0-13.851-11.268-25.119-25.119-25.119zm0 34.204h-8.551c-5.01 0-9.086-4.076-9.086-9.086s4.076-9.086 9.086-9.086h8.551c5.01 0 9.086 4.076 9.086 9.086s-4.076 9.086-9.086 9.086zM285.929 290.739h-8.551c-13.851 0-25.119 11.268-25.119 25.119s11.268 25.119 25.119 25.119h8.551c13.851 0 25.119-11.268 25.119-25.119s-11.268-25.119-25.119-25.119zm0 34.205h-8.551c-5.01 0-9.086-4.076-9.086-9.086s4.076-9.086 9.086-9.086h8.551c5.01 0 9.086 4.076 9.086 9.086s-4.076 9.086-9.086 9.086zM285.929 359.148h-8.551c-13.851 0-25.119 11.268-25.119 25.119 0 13.851 11.268 25.119 25.119 25.119h8.551c13.851 0 25.119-11.268 25.119-25.119 0-13.85-11.268-25.119-25.119-25.119zm0 34.205h-8.551c-5.01 0-9.086-4.076-9.086-9.086 0-5.01 4.076-9.086 9.086-9.086h8.551c5.01 0 9.086 4.076 9.086 9.086 0 5.01-4.076 9.086-9.086 9.086zM285.929 427.558h-8.551c-13.851 0-25.119 11.268-25.119 25.119 0 13.851 11.268 25.119 25.119 25.119h8.551c13.851 0 25.119-11.268 25.119-25.119 0-13.851-11.268-25.119-25.119-25.119zm0 34.204h-8.551c-5.01 0-9.086-4.076-9.086-9.086s4.076-9.086 9.086-9.086h8.551c5.01 0 9.086 4.076 9.086 9.086s-4.076 9.086-9.086 9.086zM132.008 290.739h-8.551c-13.851 0-25.119 11.268-25.119 25.119s11.268 25.119 25.119 25.119h8.551c13.851 0 25.119-11.268 25.119-25.119s-11.268-25.119-25.119-25.119zm0 34.205h-8.551c-5.01 0-9.086-4.076-9.086-9.086s4.076-9.086 9.086-9.086h8.551c5.01 0 9.086 4.076 9.086 9.086s-4.076 9.086-9.086 9.086zM132.008 359.148h-8.551c-13.851 0-25.119 11.268-25.119 25.119 0 13.851 11.268 25.119 25.119 25.119h8.551c13.851 0 25.119-11.268 25.119-25.119 0-13.85-11.268-25.119-25.119-25.119zm0 34.205h-8.551c-5.01 0-9.086-4.076-9.086-9.086 0-5.01 4.076-9.086 9.086-9.086h8.551c5.01 0 9.086 4.076 9.086 9.086 0 5.01-4.076 9.086-9.086 9.086zM132.008 427.558h-8.551c-13.851 0-25.119 11.268-25.119 25.119 0 13.851 11.268 25.119 25.119 25.119h8.551c13.851 0 25.119-11.268 25.119-25.119 0-13.851-11.268-25.119-25.119-25.119zm0 34.204h-8.551c-5.01 0-9.086-4.076-9.086-9.086s4.076-9.086 9.086-9.086h8.551c5.01 0 9.086 4.076 9.086 9.086s-4.076 9.086-9.086 9.086zM298.756 162.472H110.631c-9.136 0-16.568 7.432-16.568 16.568V256c0 9.136 7.432 16.568 16.568 16.568h188.125c9.136 0 16.568-7.432 16.568-16.568v-76.96c0-9.136-7.432-16.568-16.568-16.568zM299.29 256a.535.535 0 01-.534.534H110.631a.535.535 0 01-.534-.534v-76.96c0-.294.239-.534.534-.534h188.125c.295 0 .534.241.534.534V256z">
  </path>
</svg>