<svg xmlns="http://www.w3.org/2000/svg" x="0" y="0" enableBackground="new 0 0 512 512" version="1.1"
    viewBox="0 0 512 512" xmlSpace="preserve">
    <g transform="translate(1 3)">
        <path fill="#FFE100"
            d="M461.507 494.067H48.493c-8.533 0-15.36-7.68-15.36-17.067V306.333c0-9.387 6.827-17.067 15.36-17.067h413.013c8.533 0 15.36 7.68 15.36 17.067V477c.001 9.387-6.826 17.067-15.359 17.067">
        </path>
        <path fill="#FFF"
            d="M33.133 477V306.333c0-9.387 6.827-17.067 15.36-17.067H24.6c-9.387 0-17.067 7.68-17.067 17.067V477c0 9.387 7.68 17.067 17.067 17.067h23.893c-8.533 0-15.36-7.68-15.36-17.067">
        </path>
        <path fill="#FFA800"
            d="M485.4 289.267h-23.893c8.533 0 15.36 7.68 15.36 17.067V477c0 9.387-6.827 17.067-15.36 17.067H485.4c9.387 0 17.067-7.68 17.067-17.067V306.333c0-9.386-7.68-17.066-17.067-17.066">
        </path>
        <path fill="#3DB9F9"
            d="M169.667 331.933C103.96 331.933 50.2 385.693 50.2 451.4h238.933c0-65.707-53.76-119.467-119.466-119.467">
        </path>
        <path fill="#63D3FD"
            d="M156.867 331.933c-58.88 0-106.667 53.76-106.667 119.467h213.333c0-65.707-47.786-119.467-106.666-119.467">
        </path>
        <g fill="#FDCC00">
            <path
                d="M383 357.533c0-14.507-11.093-25.6-25.6-25.6s-25.6 11.093-25.6 25.6 11.093 25.6 25.6 25.6 25.6-11.093 25.6-25.6M468.333 357.533c0-14.507-11.093-25.6-25.6-25.6-14.507 0-25.6 11.093-25.6 25.6s11.093 25.6 25.6 25.6c14.507 0 25.6-11.093 25.6-25.6">
            </path>
        </g>
        <path fill="#FFF" d="M58.733 289.267L109.933 289.267 109.933 195.4 58.733 195.4z"></path>
        <path fill="#FDCC00" d="M75.8 289.267L109.933 289.267 109.933 195.4 75.8 195.4z"></path>
        <path fill="#FFA800" d="M400.067 289.267L451.267 289.267 451.267 195.4 400.067 195.4z"></path>
        <path fill="#FDCC00" d="M400.067 289.267L434.2 289.267 434.2 195.4 400.067 195.4z"></path>
        <g fill="#FFE100">
            <path
                d="M92.867 203.933c-5.12 0-8.533-3.413-8.533-8.533v-76.8c0-5.12 3.413-8.533 8.533-8.533s8.533 3.413 8.533 8.533v76.8c0 5.12-3.413 8.533-8.533 8.533zM434.2 203.933c-5.12 0-8.533-3.413-8.533-8.533v-76.8c0-5.12 3.413-8.533 8.533-8.533 5.12 0 8.533 3.413 8.533 8.533v76.8c0 5.12-3.413 8.533-8.533 8.533z">
            </path>
        </g>
        <path fill="#FFF"
            d="M109.933 93c0-14.507-11.093-25.6-25.6-25.6s-25.6 11.093-25.6 25.6 11.093 25.6 25.6 25.6 25.6-11.093 25.6-25.6">
        </path>
        <path fill="#FDCC00"
            d="M109.933 93c0-14.507-7.68-25.6-17.067-25.6S75.8 78.493 75.8 93s7.68 25.6 17.067 25.6 17.066-11.093 17.066-25.6">
        </path>
        <path fill="#FFA800"
            d="M400.067 93c0 14.507 11.093 25.6 25.6 25.6s25.6-11.093 25.6-25.6-11.093-25.6-25.6-25.6-25.6 11.093-25.6 25.6">
        </path>
        <path fill="#FDCC00"
            d="M400.067 93c0 14.507 7.68 25.6 17.067 25.6S434.2 107.507 434.2 93s-7.68-25.6-17.067-25.6-17.066 11.093-17.066 25.6">
        </path>
        <path fill="#FFE100"
            d="M280.6 193.693L228.547 54.6 200.387 110.067 101.4 110.067 101.4 93 190.147 93 230.253 11.933 280.6 145.907 300.227 93 408.6 93 408.6 110.067 312.173 110.067z">
        </path>
        <path
            d="M485.4 502.6H24.6C10.093 502.6-1 491.507-1 477V306.333c0-14.507 11.093-25.6 25.6-25.6h460.8c14.507 0 25.6 11.093 25.6 25.6V477c0 14.507-11.093 25.6-25.6 25.6zM24.6 297.8c-5.12 0-8.533 3.413-8.533 8.533V477c0 5.12 3.413 8.533 8.533 8.533h460.8c5.12 0 8.533-3.413 8.533-8.533V306.333c0-5.12-3.413-8.533-8.533-8.533H24.6z">
        </path>
        <path
            d="M109.933 297.8h-51.2c-5.12 0-8.533-3.413-8.533-8.533V195.4c0-5.12 3.413-8.533 8.533-8.533h51.2c5.12 0 8.533 3.413 8.533 8.533v93.867c.001 5.12-3.413 8.533-8.533 8.533zm-42.666-17.067H101.4v-76.8H67.267v76.8zM451.267 297.8h-51.2c-5.12 0-8.533-3.413-8.533-8.533V195.4c0-5.12 3.413-8.533 8.533-8.533h51.2c5.12 0 8.533 3.413 8.533 8.533v93.867c0 5.12-3.413 8.533-8.533 8.533zM408.6 280.733h34.133v-76.8H408.6v76.8z">
        </path>
        <path
            d="M84.333 203.933c-5.12 0-8.533-3.413-8.533-8.533v-76.8c0-5.12 3.413-8.533 8.533-8.533s8.533 3.413 8.533 8.533v76.8c.001 5.12-3.413 8.533-8.533 8.533z">
        </path>
        <path
            d="M84.333 127.133C65.56 127.133 50.2 111.773 50.2 93s15.36-34.133 34.133-34.133S118.467 74.227 118.467 93s-15.36 34.133-34.134 34.133zm0-51.2c-9.387 0-17.067 7.68-17.067 17.067s7.68 17.067 17.067 17.067S101.4 102.387 101.4 93s-7.68-17.067-17.067-17.067zM425.667 203.933c-5.12 0-8.533-3.413-8.533-8.533v-76.8c0-5.12 3.413-8.533 8.533-8.533s8.533 3.413 8.533 8.533v76.8c0 5.12-3.413 8.533-8.533 8.533z">
        </path>
        <path
            d="M425.667 127.133c-18.773 0-34.133-15.36-34.133-34.133s15.36-34.133 34.133-34.133S459.8 74.227 459.8 93s-15.36 34.133-34.133 34.133zm0-51.2c-9.387 0-17.067 7.68-17.067 17.067s7.68 17.067 17.067 17.067 17.067-7.68 17.067-17.067-7.681-17.067-17.067-17.067zM468.333 459.933H331.8c-5.12 0-8.533-3.413-8.533-8.533s3.413-8.533 8.533-8.533h136.533c5.12 0 8.533 3.413 8.533 8.533s-3.413 8.533-8.533 8.533zM468.333 425.8H331.8c-5.12 0-8.533-3.413-8.533-8.533s3.413-8.533 8.533-8.533h136.533c5.12 0 8.533 3.413 8.533 8.533s-3.413 8.533-8.533 8.533zM357.4 391.667c-18.773 0-34.133-15.36-34.133-34.133S338.627 323.4 357.4 323.4s34.133 15.36 34.133 34.133-15.36 34.134-34.133 34.134zm0-51.2c-9.387 0-17.067 7.68-17.067 17.067s7.68 17.067 17.067 17.067 17.067-7.68 17.067-17.067-7.68-17.067-17.067-17.067zM442.733 391.667c-18.773 0-34.133-15.36-34.133-34.133s15.36-34.133 34.133-34.133c18.773 0 34.133 15.36 34.133 34.133s-15.359 34.133-34.133 34.133zm0-51.2c-9.387 0-17.067 7.68-17.067 17.067s7.68 17.067 17.067 17.067 17.067-7.68 17.067-17.067-7.68-17.067-17.067-17.067z">
        </path>
        <path
            d="M357.4 391.667c-5.12 0-8.533-3.413-8.533-8.533v-17.067c0-5.12 3.413-8.533 8.533-8.533s8.533 3.413 8.533 8.533v17.067c0 5.119-3.413 8.533-8.533 8.533zM468.333 366.067h-17.067c-5.12 0-8.533-3.413-8.533-8.533s3.413-8.533 8.533-8.533h17.067c5.12 0 8.533 3.413 8.533 8.533s-3.413 8.533-8.533 8.533zM272.067 185.16L220.013 46.067l-28.16 55.467h-81.92c-5.12 0-8.533-3.413-8.533-8.533s3.413-8.533 8.533-8.533h71.68L221.72 3.4l50.347 133.973 19.627-52.907h108.373c5.12 0 8.533 3.413 8.533 8.533s-3.413 8.533-8.533 8.533H303.64l-31.573 83.628zM289.133 459.933H50.2c-5.12 0-8.533-3.413-8.533-8.533 0-70.827 57.173-128 128-128s128 57.173 128 128c0 5.12-3.414 8.533-8.534 8.533zm-230.4-17.066H280.6c-4.267-57.173-52.053-102.4-110.933-102.4s-105.814 45.226-110.934 102.4z">
        </path>
        <path
            d="M169.667 459.933c-1.707 0-4.267-.853-5.973-1.707-3.413-3.413-4.267-8.533-.853-11.947l51.2-59.733c3.413-3.413 8.533-4.267 11.947-.853 3.413 3.413 4.267 8.533.853 11.947l-51.2 59.733c-.854 1.707-3.414 2.56-5.974 2.56z">
        </path>
    </g>
</svg>