<svg xmlns="http://www.w3.org/2000/svg" x="0" y="0" enableBackground="new 0 0 390.161 390.161" version="1.1"
    viewBox="0 0 390.161 390.161" xmlSpace="preserve">
    <g fill="#FFF">
        <path
            d="M261.215 262.131c.517-2.715 1.099-5.947 1.616-8.663l-8.663 8.663h7.047zM261.215 126.051h-54.756v56.889h62.319c-.517-20.041-3.232-38.982-7.563-56.889zM278.023 283.788c-7.046 22.756-16.291 42.279-28.186 57.471 29.802-11.378 55.855-31.418 73.697-57.471h-45.511zM206.459 39.36v65.034h48.808c-11.378-34.133-28.768-58.505-48.808-65.034zM268.778 205.178h-62.319v56.889h15.709c7.564-7.046 37.366-36.848 45.511-45.511.582-3.75 1.099-7.564 1.099-11.378zM250.354 47.505c11.378 14.61 21.139 34.133 28.186 56.889h46.093c-19.006-25.988-44.477-46.093-74.279-56.889zM337.045 126.051h-53.139c3.814 17.907 5.947 36.848 6.529 56.889h5.947c15.709-19.523 29.285-39.046 40.663-56.372v-.517zM283.97 262.131h53.139c8.663-17.325 13.576-36.848 15.192-56.889H306.79c-5.43 7.046-11.378 13.576-17.325 20.622-1.164 12.413-3.362 24.89-5.495 36.267zM255.267 283.788h-24.372c-7.564 6.529-15.709 13.576-24.372 20.622v44.412c19.976-6.529 37.366-30.901 48.744-65.034zM39.542 183.004h61.22c.517-20.04 2.715-39.564 6.529-56.889H54.152c-8.081 17.325-13.511 36.784-14.61 56.889zM67.146 104.394h46.093c7.046-22.756 16.291-42.279 28.186-56.889-30.319 10.796-55.79 30.901-74.279 56.889zM67.146 283.788c15.192 21.657 35.749 39.046 59.087 50.941 2.198-1.616 4.848-2.715 7.046-4.331-8.145-12.994-15.192-28.703-20.622-46.093H67.146v-.517zM107.809 262.131c-3.814-17.907-5.947-36.848-6.529-56.889H39.542c1.099 20.04 6.529 39.564 15.192 56.889h53.075zM135.994 104.394h48.808V39.36c-20.04 6.529-37.43 30.901-48.808 65.034zM184.802 126.051h-54.756c-4.331 17.325-6.529 36.848-7.564 56.889h62.319v-56.889zM184.802 283.788h-48.808c4.331 12.994 9.762 24.372 15.709 34.133 11.378-8.145 22.756-16.291 33.034-24.372v-9.762h.065zM184.802 321.154c-6.529 4.848-12.994 9.762-20.04 14.61 6.529 6.529 12.994 10.861 20.04 13.576v-28.186zM324.051 183.004h28.186c-.517-10.861-2.715-21.657-5.43-32-7.564 10.861-15.128 21.657-22.756 32zM184.802 205.178h-62.319c.517 20.04 3.232 39.564 7.564 56.889h54.756v-56.889z">
        </path>
    </g>
    <path fill="#56ACE0"
        d="M195.598 329.299c-74.214 0-134.917-60.703-134.917-134.917S121.384 59.4 195.598 59.4 330.58 120.103 330.58 194.382s-60.703 134.917-134.982 134.917z">
    </path>
    <path fill="#194F82"
        d="M378.807 12.273c-19.523-21.139-61.22-14.61-116.493 16.808-20.622-8.145-43.378-12.994-66.651-12.994-98.133-.582-178.36 79.644-178.36 178.295 0 22.756 4.331 44.994 12.477 65.034-32.517 55.273-37.947 96.453-18.424 118.109 22.238 24.954 68.848 9.762 117.075-17.907 20.622 8.663 43.895 13.576 67.749 13.576 98.651 0 178.295-80.226 178.295-178.295 0-23.273-4.331-46.093-12.994-66.651 27.604-49.325 38.982-93.22 17.326-115.975zM140.908 47.505c-11.378 14.61-20.622 34.133-27.669 56.889H67.146c18.489-25.988 43.96-46.093 73.762-56.889zm-86.174 78.546h53.075c-3.814 17.907-5.947 36.848-6.529 56.889H39.542c1.099-20.041 6.529-39.5 15.192-56.889zm46.028 79.127c.517 20.04 2.715 39.564 6.529 56.889H54.152c-8.145-17.325-13.576-36.848-14.61-56.889h61.22zM26.548 361.816c-11.895-10.279-5.43-40.663 14.61-78.61 15.192 26.57 37.366 48.808 63.418 64.517-33.616 17.907-63.418 26.57-78.028 14.093zm100.267-27.087c-23.855-11.895-43.895-29.285-59.087-50.941h46.093c4.848 17.907 11.895 33.034 20.04 46.61-2.198 1.616-4.913 3.232-7.046 4.331zm57.987 14.093c-7.046-2.198-13.576-7.047-20.04-13.576 7.046-4.331 13.576-9.244 20.04-14.093v27.669zm0-55.272c-10.861 8.145-21.657 16.808-33.034 24.372-5.947-9.762-11.378-21.139-15.709-34.133h48.808v9.762h-.065zm0-31.419h-54.756c-4.331-17.325-6.529-36.848-7.564-56.889h62.319v56.889zm0-79.127h-62.319c.517-20.04 3.232-39.564 7.564-56.889h54.756v56.889zm0-78.61h-48.808c11.378-34.133 28.703-58.505 48.808-65.034v65.034zM363.615 27.4c11.378 11.895 5.947 40.081-13.576 76.929-15.709-25.988-37.366-48.226-63.935-63.935 37.43-18.36 66.715-23.79 77.511-12.994zm-25.471 99.232c-11.895 17.907-25.471 36.848-41.18 56.372h-5.947c-.517-20.04-2.715-39.564-6.529-56.889h53.139c0-.064 0 .517.517.517zm-14.61-22.238h-45.511c-7.046-22.756-16.291-42.279-28.186-56.889 29.802 11.378 55.79 31.418 73.697 56.889zM222.75 262.131h-15.709v-56.889h62.319c0 3.814-.517 7.564-.517 11.378-8.727 8.598-38.529 38.465-46.093 45.511zm40.598-8.727c-.517 2.715-1.099 5.947-1.616 8.663h-7.046c1.098-1.035 7.046-6.982 8.662-8.663zM206.459 39.36c20.04 6.529 37.366 30.901 48.808 65.034h-48.808V39.36zm0 86.691h54.756c4.331 17.325 6.529 36.848 7.564 56.889H206.46v-56.889zm0 222.771V304.41c8.663-7.046 16.808-14.093 24.372-20.622h24.372c-11.314 34.133-28.704 58.505-48.744 65.034zm43.895-7.563c11.378-14.61 21.139-34.133 28.186-57.471h46.093c-19.006 25.988-44.477 46.093-74.279 57.471zm86.691-79.128h-53.139c2.715-11.378 4.331-23.855 5.43-36.848 5.947-6.529 11.378-13.576 17.325-20.04h45.511c-1.551 20.557-6.4 39.498-15.127 56.888zm-12.994-79.127c8.145-10.861 15.709-21.139 22.756-32 2.715 10.279 4.849 20.622 5.43 32h-28.186z">
    </path>
</svg>